# xmcd
#
# Track frame offsets:
#	150
#	16219
#	28477
#	40512
#	57280
#	68400
#	80775
#	95356
#	107494
#	121337
#	133503
#	147885
#	161638
#	175844
#
# Disc length: 2558 seconds
#
# Revision: 0
# Processed by: cddbd v1.5.2PL0 Copyright (c) Steve Scherf et al.
# Submitted via: EasyCDDAExtractor 16.0.6.1
#
DISCID=b309fc0e
DTITLE=Άγνωστος - Μανιάτικα τραγούδια
DYEAR=1978
DGENRE=Παραδοσιακή
TTITLE0=Η πατρίς μου είναι η Μάνη
TTITLE1=Της Μάνης τα άγια χώματα
TTITLE2=Στο Δυρό και στο Λιμένι
TTITLE3=Κυνηγός με το τουφέκι
TTITLE4=Μιά ξανθιά γαλανομάτα
TTITLE5=Καράβι κινδυνεύει στον Καβομαλιά
TTITLE6=Η Μάνη βγάζει στρατηγούς
TTITLE7=Ομορφούλα μου απ' την Μάνη
TTITLE8=Η μάχη του Δυρού
TTITLE9=Ανέβηκα στον Οίτυλο
TTITLE10=Μάννα μου γλυκειά μου Μάνη
TTITLE11=Στον Ταϋγετο θ' ανέβω
TTITLE12=Να πάψει η βεντέτα
TTITLE13=Περνούν τα χελιδόνια
EXTD=
EXTT0=
EXTT1=
EXTT2=
EXTT3=
EXTT4=
EXTT5=
EXTT6=
EXTT7=
EXTT8=
EXTT9=
EXTT10=
EXTT11=
EXTT12=
EXTT13=
PLAYORDER=
